<svg width="16" height="16" viewBox="0 0 16 16" fill="none" xmlns="http://www.w3.org/2000/svg">
<g clip-path="url(#clip0_15_3801)">
<path fill-rule="evenodd" clip-rule="evenodd" d="M15 5.2999L8.29995 0.0999023C8.09995 -9.76548e-05 7.89995 -9.76548e-05 7.69995 0.0999023L0.999951 5.2999C0.799951 5.3999 0.699951 5.5999 0.699951 5.7999V13.9999C0.699951 14.4999 0.899951 15.0999 1.29995 15.3999C1.69995 15.7999 2.19995 15.9999 2.79995 15.9999H13.3C13.8 15.9999 14.4 15.7999 14.7 15.3999C15.1 14.9999 15.3 14.4999 15.3 13.9999V5.7999C15.3 5.5999 15.2 5.3999 15 5.2999ZM9.69995 14.8999H6.29995V8.4999H9.69995V14.8999ZM14.2 13.9999C14.2 14.2999 14.1 14.4999 13.9 14.6999C13.7 14.8999 13.5 14.9999 13.2 14.9999H10.7V7.9999C10.7 7.6999 10.5 7.4999 10.2 7.4999H5.79995C5.49995 7.4999 5.19995 7.6999 5.19995 7.9999V14.8999H2.79995C2.49995 14.8999 2.29995 14.7999 2.09995 14.5999C1.89995 14.3999 1.79995 14.1999 1.79995 13.8999V5.9999L7.99995 1.1999L14.2 5.9999V13.9999Z" fill="#E7833D"/>
</g>
<defs>
<clipPath id="clip0_15_3801">
<rect width="16" height="16" fill="white"/>
</clipPath>
</defs>
</svg>
