<svg width="202" height="46" viewBox="0 0 202 46" fill="none" xmlns="http://www.w3.org/2000/svg">
<g clip-path="url(#clip0_37_2794)">
<path d="M54.4837 25.6149C54.4837 23.3865 54.4837 20.9181 54.4307 18.9523H59.3052C59.4113 19.8602 59.4795 22.0435 59.4947 23.8367C60.6546 21.3007 63.4367 18.217 69.1603 18.217C75.4221 18.217 79.4855 22.036 79.4855 29.2837V45.3624H74.4366V30.1766C74.4366 25.8324 72.7536 22.3886 67.7882 22.3886C62.2314 22.3886 59.5098 26.5752 59.5098 32.6976V45.3624H54.4761V25.6074L54.4837 25.6149Z" fill="black"/>
<path d="M116.768 35.6084C115.025 41.4006 110.704 45.7898 102.895 45.7898C92.2972 45.7898 86.7025 37.4391 86.7025 27.1602C86.7025 16.8813 92.1911 8.32056 102.948 8.32056C110.908 8.32056 115.608 12.7022 116.821 18.8095H113.971C112.28 14.0602 109.172 10.9315 102.789 10.9315C93.6163 10.9315 89.7652 19.2297 89.7652 27.1152C89.7652 35.0007 93.5632 43.1938 103.001 43.1938C109.013 43.1938 112.068 40.1177 113.918 35.6234H116.768V35.6084Z" fill="#FF931E"/>
<path d="M123.629 45.3697V6.90259H126.267V45.3697H123.629Z" fill="#FF931E"/>
<path d="M152.633 40.4103C152.633 42.7062 152.846 44.5369 153.005 45.3697H150.473C150.261 44.747 150.101 43.5915 149.995 41.3482C149.101 43.2764 146.781 45.9924 141.345 45.9924C135.228 45.9924 132.589 42.0759 132.589 38.167C132.589 32.4273 137.07 29.8163 144.984 29.8163H149.995V27.1528C149.995 24.5418 149.207 21.0454 143.195 21.0454C137.866 21.0454 137.077 23.814 136.501 25.9523H133.863C134.181 23.0787 135.971 18.6445 143.248 18.6445C149.26 18.6445 152.633 21.1505 152.633 26.8902V40.4103ZM150.048 32.0596H144.878C139.026 32.0596 135.387 33.5752 135.387 38.0619C135.387 41.3482 137.76 43.5915 141.452 43.5915C148.994 43.5915 150.048 38.6321 150.048 32.9975V32.0596Z" fill="#FF931E"/>
<path d="M161.071 38.167C161.965 41.5582 164.391 43.5915 168.561 43.5915C173.253 43.5915 175.156 41.4532 175.156 38.5271C175.156 35.601 173.89 34.0929 167.985 32.6824C161.185 31.0618 159.494 29.0285 159.494 25.5847C159.494 22.1409 162.238 18.6445 168.197 18.6445C174.155 18.6445 177.006 22.2459 177.423 25.9523H174.785C174.307 23.7615 172.571 21.0454 168.091 21.0454C163.61 21.0454 162.185 23.2888 162.185 25.3746C162.185 27.7755 163.451 28.976 168.674 30.2289C176.111 32.0071 177.953 34.408 177.953 38.317C177.953 43.0663 174.049 45.9924 168.515 45.9924C162.504 45.9924 159.13 42.8637 158.387 38.167H161.078H161.071Z" fill="#FF931E"/>
<path d="M185.117 38.167C186.012 41.5582 188.438 43.5915 192.607 43.5915C197.3 43.5915 199.203 41.4532 199.203 38.5271C199.203 35.601 197.937 34.0929 192.031 32.6824C185.231 31.0618 183.541 29.0285 183.541 25.5847C183.541 22.1409 186.285 18.6445 192.243 18.6445C198.202 18.6445 201.052 22.2459 201.469 25.9523H198.831C198.354 23.7615 196.618 21.0454 192.137 21.0454C187.657 21.0454 186.232 23.2888 186.232 25.3746C186.232 27.7755 187.498 28.976 192.721 30.2289C200.158 32.0071 202 34.408 202 38.317C202 43.0663 198.096 45.9924 192.562 45.9924C186.55 45.9924 183.177 42.8637 182.434 38.167H185.125H185.117Z" fill="#FF931E"/>
<path d="M23.9859 29.1261C27.306 29.1261 29.9975 26.4623 29.9975 23.1763C29.9975 19.8904 27.306 17.2266 23.9859 17.2266C20.6657 17.2266 17.9742 19.8904 17.9742 23.1763C17.9742 26.4623 20.6657 29.1261 23.9859 29.1261Z" fill="#FF931E"/>
<path d="M44.1586 12.8824L40.4288 15.4184C41.4826 17.7442 42.0739 20.3177 42.0739 23.0263C42.0739 27.3704 40.5577 31.3694 38.0257 34.5431L34.9403 31.4895C36.8052 29.1111 37.9195 26.1249 37.9195 22.8912C37.9195 15.711 32.4537 9.76872 25.4187 8.9284V4.55423C30.7253 5.15446 35.3648 7.95303 38.3896 11.9971L42.0739 9.49111C37.8437 3.74392 30.9906 0 23.2733 0C10.4389 0 0 10.3314 0 23.0338C0 35.7361 9.52158 45.1222 21.5524 46V41.5658C11.9854 40.703 4.46514 32.7275 4.46514 23.0413C4.46514 13.3551 11.9171 5.44707 21.416 4.51672V9.00343C15.0329 10.0313 10.0674 15.2833 9.54432 21.7583H12.7965C13.3727 16.3037 18.0425 12.0346 23.7054 12.0346C29.7549 12.0346 34.6749 16.9039 34.6749 22.8912C34.6749 28.8785 29.7549 33.7478 23.7054 33.7478C18.649 33.7478 14.3885 30.3415 13.1301 25.7198H9.77933C11.106 32.1272 16.8447 36.9591 23.7054 36.9591C26.8287 36.9591 29.7246 35.9537 32.0671 34.258L35.2283 37.3867C32.5295 39.5926 29.2091 41.0631 25.5627 41.4983V45.955C37.3282 44.8145 46.5466 34.9708 46.5466 23.0338C46.5466 19.3949 45.6824 15.9511 44.1586 12.8824Z" fill="#FF931E"/>
</g>
<defs>
<clipPath id="clip0_37_2794">
<rect width="202" height="46" fill="white"/>
</clipPath>
</defs>
</svg>
